<?xml version="1.0" encoding="UTF-8"?>
<svg version="1.1" xmlns="http://www.w3.org/2000/svg" width="190" height="263">
<path d="M0 0 C11.7389116 -0.52302081 21.7430097 0.67498151 33 4 C34.33118319 4.34181897 35.66336785 4.680151 37 5 C37 5.66 37 6.32 37 7 C37.71414062 7.25136719 38.42828125 7.50273437 39.1640625 7.76171875 C49.63250662 12.33265096 55.81433038 20.68582436 60 31 C60 31.99 60 32.98 60 34 C60.66 34.33 61.32 34.66 62 35 C62.77327155 38.7165684 62.9504144 42.5315617 63.25 46.3125 C63.34007324 47.40433594 63.43014648 48.49617188 63.52294922 49.62109375 C64.05730488 57.06874515 64.06307561 63.76336554 62 71 C62.6290625 71.17015625 63.258125 71.3403125 63.90625 71.515625 C72.30458954 73.89346812 78.99761135 76.69894315 85.46875 82.640625 C87.02988457 84.11626689 87.02988457 84.11626689 89.25 85.3125 C91.80583566 87.77705582 92.36125404 90.66620586 93.2890625 94.0390625 C93.81608589 96.19489347 93.81608589 96.19489347 96 97 C96.27260813 110.14576961 94.93116721 122.1003594 91.87939453 134.85498047 C90.12993027 142.2068197 88.85915621 149.485589 88 157 C87.34 157 86.68 157 86 157 C85.8453125 158.24330078 85.8453125 158.24330078 85.6875 159.51171875 C84.90217702 163.49634047 83.56121901 167.08383475 82 170.8125 C81.69384766 171.54734619 81.38769531 172.28219238 81.07226562 173.03930664 C76.2538701 184.34835023 70.64489605 195.31950371 63.3125 205.21484375 C61.94439208 206.96995679 61.94439208 206.96995679 61 209 C60.34 209 59.68 209 59 209 C58.62875 209.84498047 58.62875 209.84498047 58.25 210.70703125 C51.17029546 223.69386427 37.11815688 233.73944919 24 240 C23.01 240 22.02 240 21 240 C20.67 240.66 20.34 241.32 20 242 C16.99943916 242.08166849 14.0011461 242.14081551 11 242.1875 C10.16082031 242.21263672 9.32164063 242.23777344 8.45703125 242.26367188 C-3.97332946 242.40821095 -12.83994026 236.14643224 -21.625 227.6875 C-26.03743989 223.03570606 -30.03759844 218.03516666 -34 213 C-34.51965332 212.34080566 -35.03930664 211.68161133 -35.57470703 211.00244141 C-46.1597349 197.51799619 -56.75712647 183.08717327 -62.109375 166.578125 C-62.7150765 163.85105362 -62.7150765 163.85105362 -65 163 C-65.74609375 161.2434082 -65.74609375 161.2434082 -66.4375 158.98828125 C-66.69402344 158.17311035 -66.95054688 157.35793945 -67.21484375 156.51806641 C-67.47394531 155.68710449 -67.73304687 154.85614258 -68 154 C-68.49513823 152.53350576 -68.99499518 151.06859463 -69.5 149.60546875 C-70.80607744 145.77875594 -72.0727063 141.94036972 -73.31738281 138.09326172 C-73.87925646 136.3702629 -74.46389498 134.65470457 -75.0546875 132.94140625 C-78.7714621 120.74684577 -79.17546409 104.37334793 -74.3359375 92.48046875 C-69.1137048 82.78421798 -61.48622426 77.28234508 -52.62109375 71.09765625 C-47.63646618 67.10846847 -44.5961839 62.77761848 -43.59277344 56.41967773 C-43.51575195 55.51677002 -43.43873047 54.6138623 -43.359375 53.68359375 C-41.70718632 36.6346451 -38.99204341 25.09243332 -26 13 C-17.86660507 6.31674525 -10.42731152 2.93100996 0 2 C0 1.34 0 0.68 0 0 Z M-9.625 20 C-10.81351562 20.556875 -12.00203125 21.11375 -13.2265625 21.6875 C-14.14179687 22.120625 -15.05703125 22.55375 -16 23 C-16 23.66 -16 24.32 -16 25 C-16.99 25.495 -16.99 25.495 -18 26 C-18 28.31 -18 30.62 -18 33 C-15.74754119 30.31158141 -14.11786042 28.35358125 -13 25 C-9.9375 23.8125 -9.9375 23.8125 -7 23 C-7.33 26.3 -7.66 29.6 -8 33 C-7.319375 32.71125 -6.63875 32.4225 -5.9375 32.125 C3.45608271 28.52745769 11.20546518 28.57534039 21 30 C21 28.68 21 27.36 21 26 C13.10304631 24.56419024 4.854824 24.18734831 -3 26 C-2.34 23.03 -1.68 20.06 -1 17 C-4.22452084 17 -6.73453013 18.63977889 -9.625 20 Z M22 18 C22.33 20.31 22.66 22.62 23 25 C23.66 25 24.32 25 25 25 C25.33 23.68 25.66 22.36 26 21 C26.42152344 21.43441406 26.84304687 21.86882813 27.27734375 22.31640625 C29.51838077 24.5066261 31.94110892 26.43637816 34.37890625 28.40234375 C36.13738471 30.13539842 37.02240308 31.74812253 38 34 C38.14377967 28.25086276 38.14377967 28.25086276 35.55078125 23.359375 C31.42072504 20.38501782 27.1675181 18 22 18 Z M26 27 C27 29 27 29 27 29 Z M-26 31 C-26.677219 33.51840815 -27.34191174 36.03908724 -28 38.5625 C-28.19078125 39.26697266 -28.3815625 39.97144531 -28.578125 40.69726562 C-29.75834086 45.27060209 -30.19856973 49.27776365 -30 54 C-29.505 52.515 -29.505 52.515 -29 51 C-28.34 51 -27.68 51 -27 51 C-27 49.02 -27 47.04 -27 45 C-24.03 47.31 -21.06 49.62 -18 52 C-17.67 51.34 -17.34 50.68 -17 50 C-18.16822053 47.82323882 -18.16822053 47.82323882 -19.8125 45.4375 C-22.84011844 40.61157456 -24.09695228 36.59889587 -25 31 C-25.33 31 -25.66 31 -26 31 Z M45 32 C45.33 33.98 45.66 35.96 46 38 C46.33 37.01 46.66 36.02 47 35 C46.34 34.01 45.68 33.02 45 32 Z M47 39 C47 40.65 47 42.3 47 44 C47.99 44.495 47.99 44.495 49 45 C48.67 43.02 48.34 41.04 48 39 C47.67 39 47.34 39 47 39 Z M43 40 C41.91173151 41.59416628 40.87904903 43.22649159 39.875 44.875 C39.03582031 46.23238281 39.03582031 46.23238281 38.1796875 47.6171875 C37.79039063 48.40351562 37.40109375 49.18984375 37 50 C37.33 50.66 37.66 51.32 38 52 C40.64 49.69 43.28 47.38 46 45 C45.34 43.35 44.68 41.7 44 40 C43.67 40 43.34 40 43 40 Z M48 46 C48 50.95 48 55.9 48 61 C48.33 61 48.66 61 49 61 C49 56.05 49 51.1 49 46 C48.67 46 48.34 46 48 46 Z M-27 51 C-26 53 -26 53 -26 53 Z M-30 57 C-29 59 -29 59 -29 59 Z M47 61 C48 65 48 65 48 65 Z M45 78 C44.67 79.32 44.34 80.64 44 82 C46.09950586 82.86555948 48.2047907 83.71711277 50.3125 84.5625 C51.48425781 85.03816406 52.65601563 85.51382813 53.86328125 86.00390625 C56.98196084 87.33297345 56.98196084 87.33297345 60 86 C60.33 85.01 60.66 84.02 61 83 C55.74567937 80.54053077 50.69139902 79.09698167 45 78 Z " fill="#031C36" transform="translate(86,6)"/>
<path d="M0 0 C0 2.31 0 4.62 0 7 C-0.69561035 7.25692627 -1.3912207 7.51385254 -2.10791016 7.77856445 C-5.28158594 8.95303068 -8.45329792 10.13271462 -11.625 11.3125 C-13.26662109 11.91868164 -13.26662109 11.91868164 -14.94140625 12.53710938 C-22.71650283 15.25235977 -22.71650283 15.25235977 -30 19 C-30.96044102 21.07690578 -30.96044102 21.07690578 -31 23 C-29.99839844 22.59007813 -28.99679688 22.18015625 -27.96484375 21.7578125 C-26.62247193 21.213354 -25.2800197 20.66909375 -23.9375 20.125 C-23.28072266 19.85558594 -22.62394531 19.58617188 -21.94726562 19.30859375 C-16.3636184 17.05313034 -11.09611495 15 -5 15 C-4.34 14.01 -3.68 13.02 -3 12 C-2.34 12 -1.68 12 -1 12 C2 15.46153846 2 15.46153846 2 18 C2.66 18 3.32 18 4 18 C4.33 14.7 4.66 11.4 5 8 C7 10 7 10 7.02734375 12.50390625 C6.98287109 14.01791016 6.98287109 14.01791016 6.9375 15.5625 C7.17655769 19.87073537 7.58641679 21.53938941 10.5078125 24.79296875 C13.26376731 27.00971501 16.03856174 29.06799085 19 31 C18.01 31.495 18.01 31.495 17 32 C16.01 31.67 15.02 31.34 14 31 C14 31.99 14 32.98 14 34 C15.051875 34.32871094 15.051875 34.32871094 16.125 34.6640625 C20.92275957 36.26766149 25.06325375 37.76858745 29 41 C33.50054478 44.68056975 38.51184215 46.27109728 44 48 C45.485 48.495 45.485 48.495 47 49 C47.11727273 53.14559093 47.18760933 57.29074862 47.25 61.4375 C47.28351563 62.60216797 47.31703125 63.76683594 47.3515625 64.96679688 C47.45052738 73.7499301 46.39703996 80.01071294 40.625 86.7890625 C37.83204245 89.14146425 35.01150628 91.30843064 32 93.375 C30.989375 94.08398438 29.97875 94.79296875 28.9375 95.5234375 C26 97 26 97 23.4375 96.8984375 C14.23877825 93.50788301 6.86585991 87.51525484 2 79 C1.25 75.625 1.25 75.625 1 73 C0.38125 72.855625 -0.2375 72.71125 -0.875 72.5625 C-3 72 -3 72 -5 71 C0.28968986 87.68569763 7.49251752 104.73438768 19.75 117.51171875 C21 119 21 119 21 121 C28.91189782 117.04405109 33.14964014 109.51113286 37.375 102.0625 C37.82488281 101.28326172 38.27476563 100.50402344 38.73828125 99.70117188 C39.83204945 97.80453127 40.91697043 95.90279305 42 94 C43.98 94.495 43.98 94.495 46 95 C46.88257483 97.84385224 47.35677009 100.04746802 46.29003906 102.89550781 C45.14740119 105.03074021 43.91753759 107.07697812 42.625 109.125 C42.17108887 109.86838623 41.71717773 110.61177246 41.24951172 111.37768555 C36.23874744 119.45773875 30.87699178 127.38513571 24 134 C16.10136022 130.56698039 11.3914639 121.99497602 7 114.9375 C6.47946045 114.1017041 5.9589209 113.2659082 5.42260742 112.40478516 C-4.11867659 96.83609708 -11.86885957 78.82762055 -16 61 C-15.48400816 68.8822202 -13.9078547 76.34458305 -12 84 C-13.485 83.505 -13.485 83.505 -15 83 C-8.10696243 97.96077286 -0.81110819 112.39006267 7.9753418 126.33374023 C9 128 9 128 10 130 C6.7734375 130.34375 6.7734375 130.34375 3 130 C0.6640625 127.71875 0.6640625 127.71875 -1.375 124.5 C-1.93670898 123.62420288 -1.93670898 123.62420288 -2.50976562 122.73071289 C-3.70532544 120.83832534 -4.85583717 118.92383498 -6 117 C-6.37415039 116.38495605 -6.74830078 115.76991211 -7.13378906 115.13623047 C-24.75186436 85.99982184 -38.93531702 49.62067105 -37 15 C-6.484375 0 -6.484375 0 0 0 Z " fill="#1C72C0" transform="translate(73,90)"/>
<path d="M0 0 C0.66 0.33 1.32 0.66 2 1 C2 1.99 2 2.98 2 4 C2.515625 3.7525 3.03125 3.505 3.5625 3.25 C7.46522651 2.84972036 9.74166065 4.93220772 13 7 C12.67 5.68 12.34 4.36 12 3 C12.56847656 3.19335938 13.13695313 3.38671875 13.72265625 3.5859375 C14.49480469 3.84632813 15.26695313 4.10671875 16.0625 4.375 C16.81660156 4.63023437 17.57070312 4.88546875 18.34765625 5.1484375 C21.5446716 6.17487247 24.76809589 7.09016163 28 8 C28.11727273 12.14559093 28.18760933 16.29074862 28.25 20.4375 C28.30027344 22.18450195 28.30027344 22.18450195 28.3515625 23.96679688 C28.45052738 32.7499301 27.39703996 39.01071294 21.625 45.7890625 C18.83204245 48.14146425 16.01150628 50.30843064 13 52.375 C11.4840625 53.43847656 11.4840625 53.43847656 9.9375 54.5234375 C7 56 7 56 4.4375 55.8984375 C-4.8622607 52.47064109 -11.94518218 46.48487278 -17 38 C-18.12742018 34.62914597 -18.1149946 31.45889871 -18.09765625 27.921875 C-18.09443359 26.76171875 -18.09121094 25.6015625 -18.08789062 24.40625 C-18.07951172 23.1996875 -18.07113281 21.993125 -18.0625 20.75 C-18.05798828 19.52796875 -18.05347656 18.3059375 -18.04882812 17.046875 C-18.03704815 14.03120054 -18.02059853 11.01562502 -18 8 C-17.11957031 7.67386719 -16.23914063 7.34773437 -15.33203125 7.01171875 C-14.17058594 6.57472656 -13.00914063 6.13773438 -11.8125 5.6875 C-10.66394531 5.25824219 -9.51539062 4.82898438 -8.33203125 4.38671875 C-5.00513116 3.10533581 -5.00513116 3.10533581 -2.19921875 1.26953125 C-1.47347656 0.85058594 -0.74773437 0.43164062 0 0 Z " fill="#B6BEC1" transform="translate(92,131)"/>
<path d="M0 0 C0 2.31 0 4.62 0 7 C-0.69561035 7.25692627 -1.3912207 7.51385254 -2.10791016 7.77856445 C-5.28158594 8.95303068 -8.45329792 10.13271462 -11.625 11.3125 C-13.26662109 11.91868164 -13.26662109 11.91868164 -14.94140625 12.53710938 C-22.71650283 15.25235977 -22.71650283 15.25235977 -30 19 C-30.96044102 21.07690578 -30.96044102 21.07690578 -31 23 C-30.02160156 22.59007813 -29.04320312 22.18015625 -28.03515625 21.7578125 C-21.08011966 18.88494498 -14.44897941 16.30683849 -7 15 C-7 15.66 -7 16.32 -7 17 C-10.10283021 18.48198208 -13.20748727 19.96009683 -16.3125 21.4375 C-17.19357422 21.85837891 -18.07464844 22.27925781 -18.98242188 22.71289062 C-19.82998047 23.11572266 -20.67753906 23.51855469 -21.55078125 23.93359375 C-22.33106689 24.30540771 -23.11135254 24.67722168 -23.9152832 25.06030273 C-26 26 -26 26 -29 27 C-27.55911056 33.40421212 -26.10028731 39.80416095 -24.62988281 46.20166016 C-24.13339122 48.37100083 -23.6407666 50.54123078 -23.15234375 52.71240234 C-19.4394134 69.19994348 -15.07636588 84.6959124 -7.375 99.8125 C-6.7574585 101.04093628 -6.7574585 101.04093628 -6.12744141 102.29418945 C-1.63399239 111.03330538 3.63807342 119.27147425 9.05712891 127.4597168 C10 129 10 129 10 130 C6.7734375 130.34375 6.7734375 130.34375 3 130 C0.6640625 127.71875 0.6640625 127.71875 -1.375 124.5 C-1.93670898 123.62420288 -1.93670898 123.62420288 -2.50976562 122.73071289 C-3.70532544 120.83832534 -4.85583717 118.92383498 -6 117 C-6.37415039 116.38495605 -6.74830078 115.76991211 -7.13378906 115.13623047 C-24.75186436 85.99982184 -38.93531702 49.62067105 -37 15 C-6.484375 0 -6.484375 0 0 0 Z " fill="#F4F9FA" transform="translate(73,90)"/>
<path d="M0 0 C7.67573388 2.41658644 15.03280109 5.41973599 22.4375 8.5625 C23.62021484 9.05685547 24.80292969 9.55121094 26.02148438 10.06054688 C27.14748047 10.53685547 28.27347656 11.01316406 29.43359375 11.50390625 C30.45509521 11.93517822 31.47659668 12.3664502 32.52905273 12.81079102 C35 14 35 14 37 16 C38.14202693 24.3848819 36.14393226 32.78394633 34.375 40.9375 C34.10284668 42.21222168 33.83069336 43.48694336 33.55029297 44.80029297 C29.71711218 62.33571424 24.38569639 78.65192305 17 95 C16.63471191 95.81952148 16.26942383 96.63904297 15.89306641 97.48339844 C11.36825086 107.58705 6.64479158 117.09284898 0 126 C-0.64839844 126.92425781 -1.29679687 127.84851563 -1.96484375 128.80078125 C-4 131 -4 131 -6.140625 131.48828125 C-6.83671875 131.43027344 -7.5328125 131.37226563 -8.25 131.3125 C-10.10625 131.1578125 -10.10625 131.1578125 -12 131 C-11.67128906 130.51273438 -11.34257813 130.02546875 -11.00390625 129.5234375 C-9.96068172 127.96849579 -8.9237102 126.4093528 -7.890625 124.84765625 C-6.60302471 122.90827482 -5.30027325 120.97888713 -3.984375 119.05859375 C12.83850297 93.91504772 21.36155054 67.2501557 28 38 C28.5667358 35.53883835 29.13439967 33.07789017 29.703125 30.6171875 C29.95223633 29.53808105 30.20134766 28.45897461 30.45800781 27.34716797 C30.63686523 26.57260254 30.81572266 25.79803711 31 25 C28.69 24.34 26.38 23.68 24 23 C27 22 27 22 31 22 C31 21.01 31 20.02 31 19 C30.09644775 18.64172119 29.19289551 18.28344238 28.26196289 17.91430664 C24.91945176 16.58813783 21.57829747 15.25858028 18.23754883 13.92797852 C16.78967664 13.35185247 15.34143496 12.77665414 13.89282227 12.20239258 C11.8142946 11.37823467 9.73710555 10.55078232 7.66015625 9.72265625 C7.00910416 9.46533218 6.35805206 9.20800812 5.68727112 8.94288635 C1.11387171 7.11387171 1.11387171 7.11387171 0 6 C-0.04080783 4.00041636 -0.04254356 1.99954746 0 0 Z " fill="#216FB7" transform="translate(119,90)"/>
<path d="M0 0 C0.556875 0.7425 1.11375 1.485 1.6875 2.25 C3.93027178 4.91707995 6.22074975 6.91556232 9 9 C9.66 8.34 10.32 7.68 11 7 C11.66 8.98 12.32 10.96 13 13 C13.23428313 8.2102679 13.23428313 8.2102679 11 4 C19.70183317 -0.26212237 26.0277197 0.96711652 35 4 C34.34 4.845625 33.68 5.69125 33 6.5625 C30.74727595 10.43436947 30.64822304 12.60278797 31 17 C32.32 16.67 33.64 16.34 35 16 C34.505 15.505 34.505 15.505 34 15 C33.95907063 12.66702567 33.95758277 10.33294775 34 8 C34.66 7.67 35.32 7.34 36 7 C36 8.98 36 10.96 36 13 C36.33 11.35 36.66 9.7 37 8 C37.639375 7.87625 38.27875 7.7525 38.9375 7.625 C39.618125 7.41875 40.29875 7.2125 41 7 C41.33 6.34 41.66 5.68 42 5 C42.99 5 43.98 5 45 5 C45.33 4.34 45.66 3.68 46 3 C45.62134678 8.58513495 45.26612338 11.98482505 41 16 C40.01 16 39.02 16 38 16 C38.20625 17.175625 38.4125 18.35125 38.625 19.5625 C38.64793135 22.77862238 38.25391602 23.73673436 35.984375 26.08984375 C30.17447312 30.34290066 26.70852876 31.36219452 19.5625 30.8125 C17.00229591 30.00072797 15.71983151 29.11894551 13.625 27.5 C10.07234034 24.79060901 7.42198874 24.270734 3 24 C3.34978143 30.64584719 4.80477672 33.83664827 9 39 C6.5625 38.625 6.5625 38.625 4 38 C3.67 37.34 3.34 36.68 3 36 C2.01 35.67 1.02 35.34 0 35 C0 33.68 0 32.36 0 31 C-0.598125 30.7525 -1.19625 30.505 -1.8125 30.25 C-4.28647521 28.83629988 -5.43370255 27.34944617 -7 25 C-6.67 24.34 -6.34 23.68 -6 23 C-4.02 24.65 -2.04 26.3 0 28 C0.06058594 27.32453125 0.12117188 26.6490625 0.18359375 25.953125 C0.30927734 24.61507812 0.30927734 24.61507812 0.4375 23.25 C0.51871094 22.36828125 0.59992188 21.4865625 0.68359375 20.578125 C1 18 1 18 1.66015625 15.921875 C2.11435562 13.35329923 1.17756879 12.28637444 0 10 C-0.1953125 7.421875 -0.1953125 7.421875 -0.125 4.75 C-0.10695313 3.85796875 -0.08890625 2.9659375 -0.0703125 2.046875 C-0.03550781 1.03367188 -0.03550781 1.03367188 0 0 Z " fill="#1C72BF" transform="translate(73,39)"/>
<path d="M0 0 C1.32 0 2.64 0 4 0 C4.24234375 0.73605469 4.4846875 1.47210938 4.734375 2.23046875 C7.13158953 9.21005105 9.78624717 13.801017 15 19 C13.86046875 19.4125 12.7209375 19.825 11.546875 20.25 C6.35411618 22.13877948 1.17616367 24.06628727 -4 26 C-4.92345215 26.34192383 -5.8469043 26.68384766 -6.79833984 27.03613281 C-9.51794132 28.04934582 -12.22836131 29.08417834 -14.9375 30.125 C-15.78280273 30.43695313 -16.62810547 30.74890625 -17.49902344 31.0703125 C-22.1851309 32.89829428 -25.49929551 34.38592841 -28 39 C-29.92631545 55.21135135 -23.35652026 74.6146958 -18.52441406 89.91162109 C-17.63031815 92.74292481 -17 95.0066678 -17 98 C-19.64738916 99.4606285 -20.89448334 100 -24 100 C-31.25084868 82.83218301 -36.01762071 64.08153259 -36.25 45.375 C-36.27578125 44.12460938 -36.3015625 42.87421875 -36.328125 41.5859375 C-35.8342816 36.18893462 -34.20791698 33.22621875 -30.421875 29.3828125 C-26.44579461 26.31618083 -21.9089929 24.64485766 -17.25 22.875 C-16.40695313 22.54113281 -15.56390625 22.20726563 -14.6953125 21.86328125 C-8.88137246 19.59637802 -3.00057045 17.70780532 3 16 C2.69280029 15.3704541 2.38560059 14.7409082 2.0690918 14.09228516 C-0.09398499 9.60608663 -1.63683641 6.09469125 -1 1 C-0.67 0.67 -0.34 0.34 0 0 Z " fill="#F4F7F8" transform="translate(58,66)"/>
<path d="M0 0 C2.11804493 2.66361904 3.65663661 5.17750568 4.98046875 8.30859375 C5.3357666 9.13198242 5.69106445 9.95537109 6.05712891 10.80371094 C6.43015137 11.67286133 6.80317383 12.54201172 7.1875 13.4375 C12.04472637 24.46417926 17.32350061 34.7278455 25.75 43.51171875 C27 45 27 45 27 47 C34.91189782 43.04405109 39.14964014 35.51113286 43.375 28.0625 C43.82488281 27.28326172 44.27476563 26.50402344 44.73828125 25.70117188 C45.83204945 23.80453127 46.91697043 21.90279305 48 20 C49.32 20.33 50.64 20.66 52 21 C52.88257483 23.84385224 53.35677009 26.04746802 52.29003906 28.89550781 C51.14740119 31.03074021 49.91753759 33.07697812 48.625 35.125 C48.17108887 35.86838623 47.71717773 36.61177246 47.24951172 37.37768555 C42.23874744 45.45773875 36.87699178 53.38513571 30 60 C22.09931036 56.56608945 17.3950963 47.99443571 13 40.9375 C12.48453613 40.11620605 11.96907227 39.29491211 11.43798828 38.44873047 C6.98343316 31.22214135 3.2910973 23.82374628 0 16 C-0.38414063 15.13503906 -0.76828125 14.27007812 -1.1640625 13.37890625 C-2.04230246 10.8796159 -2.2679244 8.95186818 -2.25 6.3125 C-2.25515625 5.54550781 -2.2603125 4.77851563 -2.265625 3.98828125 C-2 2 -2 2 0 0 Z " fill="#F4F7F9" transform="translate(67,164)"/>
<path d="M0 0 C0 1.98 0 3.96 0 6 C-2 5 -4 4 -6 3 C-4.68 4.65 -3.36 6.3 -2 8 C-0.35 7.67 1.3 7.34 3 7 C3.66 4.69 4.32 2.38 5 0 C10.445 0.495 10.445 0.495 16 1 C16.82257762 7.26072967 17.2355616 12.68666498 14.1953125 18.37890625 C10.89247135 22.42567808 8.0071457 25.34047217 2.98046875 26.9921875 C-1.79528552 27.39680853 -4.76987488 26.88733264 -8.69140625 24.05859375 C-16.86985124 16.09018908 -16.86985124 16.09018908 -17.1953125 10.86328125 C-17.17210938 9.69152344 -17.14890625 8.51976563 -17.125 7.3125 C-17.09792969 5.54326172 -17.09792969 5.54326172 -17.0703125 3.73828125 C-17.04710938 2.83464844 -17.02390625 1.93101563 -17 1 C-11.27959989 0.1679418 -5.77759884 -0.12036664 0 0 Z " fill="#F4F7F8" transform="translate(96,79)"/>
<path d="M0 0 C11.74637224 6.23911672 11.74637224 6.23911672 14 13 C15.64309581 33.09425372 11.57955475 56.34642044 4 75 C3.01 75.99 3.01 75.99 2 77 C-0.31 75.68 -2.62 74.36 -5 73 C-3.67560012 68.01465738 -2.33794864 63.03931167 -0.79296875 58.1171875 C6.16158021 36.22415936 6.16158021 36.22415936 5.125 13.75 C1.49610546 9.05378354 -3.76065397 6.61967301 -9 4 C-9 2.35 -9 0.7 -9 -1 C-5.03013841 -2.3232872 -3.86802913 -1.61753946 0 0 Z " fill="#F4F7F8" transform="translate(155,91)"/>
<path d="M0 0 C2.4214607 3.63219105 2.29869516 5.49158558 2.3125 9.8125 C2.32925781 11.01519531 2.34601563 12.21789062 2.36328125 13.45703125 C1.96972398 17.29527256 0.80122202 19.62860276 -1 23 C-1.25144312 26.75073204 -1.25144312 26.75073204 -1 30 C0.93467942 30.83986084 2.87285129 31.67168027 4.8125 32.5 C5.89144531 32.9640625 6.97039062 33.428125 8.08203125 33.90625 C10.94882024 35.17549303 10.94882024 35.17549303 14 35 C14 35.99 14 36.98 14 38 C14.845625 38.226875 15.69125 38.45375 16.5625 38.6875 C20.67404851 40.25736398 23.50393484 42.34299048 27 45 C26.34 47.97 25.68 50.94 25 54 C24.67 54 24.34 54 24 54 C23.80937988 53.0807373 23.61875977 52.16147461 23.42236328 51.21435547 C21.58925345 47.07176637 19.24742711 46.14162043 15.2421875 44.5703125 C14.57913605 44.2902536 13.91608459 44.0101947 13.23294067 43.72164917 C11.12157136 42.83536583 8.99918015 41.98005825 6.875 41.125 C5.43796851 40.52804436 4.00175847 39.92910714 2.56640625 39.328125 C-0.94662548 37.86228656 -4.46985025 36.4240909 -8 35 C-7.67 33.68 -7.34 32.36 -7 31 C-6.01 31 -5.02 31 -4 31 C-5.98 30.34 -7.96 29.68 -10 29 C-8.91799178 25.48347329 -7.63879704 22.19065929 -6.0625 18.875 C-3.93645669 14.21833051 -2.75152832 9.48294231 -1.61328125 4.50390625 C-1 2 -1 2 0 0 Z " fill="#06203D" transform="translate(132,57)"/>
<path d="M0 0 C0.99 0 1.98 0 3 0 C0.94888044 6.70358451 -1.66314496 12.99253693 -4.6875 19.3125 C-5.12594238 20.23095703 -5.56438477 21.14941406 -6.01611328 22.09570312 C-9.4593892 29.16945734 -13.25666664 35.70317319 -18 42 C-18.64710937 42.92167969 -19.29421875 43.84335938 -19.9609375 44.79296875 C-22 47 -22 47 -24.140625 47.48828125 C-24.83671875 47.43027344 -25.5328125 47.37226563 -26.25 47.3125 C-27.4875 47.209375 -28.725 47.10625 -30 47 C-29.50693359 46.26910156 -29.50693359 46.26910156 -29.00390625 45.5234375 C-27.96229142 43.97089507 -26.92656542 42.41439624 -25.89453125 40.85546875 C-24.59157216 38.89162732 -23.27569911 36.93631241 -21.94921875 34.98828125 C-16.73078039 27.15598921 -12.42792697 19.15665237 -8.53808594 10.5769043 C-5.59367884 4.3349808 -5.59367884 4.3349808 -2.203125 2.421875 C-1.47609375 2.28265625 -0.7490625 2.1434375 0 2 C0 1.34 0 0.68 0 0 Z " fill="#F3F8F9" transform="translate(137,174)"/>
<path d="M0 0 C4.24876701 6.37315051 3.72373847 14.64617174 2.50390625 21.984375 C0.44832442 30.57833294 -3.74970567 34.39967047 -11 39.375 C-12.5159375 40.43847656 -12.5159375 40.43847656 -14.0625 41.5234375 C-17 43 -17 43 -19.5546875 42.90234375 C-22.28050393 41.89649136 -24.63711281 40.690123 -27.125 39.1875 C-27.97320312 38.68605469 -28.82140625 38.18460938 -29.6953125 37.66796875 C-32.01875144 35.98642904 -33.42275619 34.37617451 -35 32 C-34.34 30.68 -33.68 29.36 -33 28 C-32.13375 28.7425 -31.2675 29.485 -30.375 30.25 C-27.35654847 32.73578361 -24.43496585 35.09980612 -21 37 C-14.7555852 36.38063528 -9.30436553 32.78263007 -5.34375 28 C-1.2001405 21.64004123 -0.81668705 15.6034041 -0.4375 8.1875 C-0.37272461 7.00510742 -0.37272461 7.00510742 -0.30664062 5.79882812 C-0.20121679 3.86605785 -0.10016906 1.93304974 0 0 Z " fill="#5590BF" transform="translate(116,144)"/>
<path d="M0 0 C1.12535156 0.00580078 1.12535156 0.00580078 2.2734375 0.01171875 C3.02367188 0.00785156 3.77390625 0.00398437 4.546875 0 C10.14682697 0.01010822 10.14682697 0.01010822 11.2734375 1.13671875 C11.37217566 3.13471447 11.40315549 5.13629033 11.3984375 7.13671875 C11.40230469 8.77640625 11.40230469 8.77640625 11.40625 10.44921875 C11.2734375 13.13671875 11.2734375 13.13671875 10.2734375 14.13671875 C7.5961237 14.23653089 4.95039575 14.2755175 2.2734375 14.26171875 C1.14808594 14.26751953 1.14808594 14.26751953 0 14.2734375 C-5.59995197 14.26332928 -5.59995197 14.26332928 -6.7265625 13.13671875 C-6.82530066 11.13872303 -6.85628049 9.13714717 -6.8515625 7.13671875 C-6.85414062 6.04359375 -6.85671875 4.95046875 -6.859375 3.82421875 C-6.61880525 -1.04378087 -4.32449493 0.00780595 0 0 Z " fill="#2875BA" transform="translate(94.7265625,155.86328125)"/>
<path d="M0 0 C2 2 2 2 2.02734375 4.50390625 C1.99769531 5.51324219 1.96804687 6.52257812 1.9375 7.5625 C2.17655769 11.87073537 2.58641679 13.53938941 5.5078125 16.79296875 C8.26376731 19.00971501 11.03856174 21.06799085 14 23 C13.34 23.33 12.68 23.66 12 24 C11.01 23.67 10.02 23.34 9 23 C8.67 23.99 8.34 24.98 8 26 C-0.30960032 21.31640709 -7.3030724 15.41594598 -12 7 C-11.34 7 -10.68 7 -10 7 C-9.34 6.01 -8.68 5.02 -8 4 C-7.34 4 -6.68 4 -6 4 C-3 7.46153846 -3 7.46153846 -3 10 C-2.34 10 -1.68 10 -1 10 C-0.67 6.7 -0.34 3.4 0 0 Z " fill="#002045" transform="translate(78,98)"/>
<path d="M0 0 C3.38666738 5.08000107 2.57309166 11.06916775 2 17 C0.96688382 19.84780721 -0.1477659 21.56894275 -2 24 C-3.98 24 -5.96 24 -8 24 C-7.67386719 23.10539062 -7.34773438 22.21078125 -7.01171875 21.2890625 C-4.46577857 14.24454365 -2.04356271 7.21061966 0 0 Z " fill="#92A0AA" transform="translate(132,57)"/>
<path d="M0 0 C0.80824219 0.11988281 1.61648437 0.23976562 2.44921875 0.36328125 C3.06410156 0.47027344 3.67898437 0.57726562 4.3125 0.6875 C4.3125 1.6775 4.3125 2.6675 4.3125 3.6875 C3.9825 3.6875 3.6525 3.6875 3.3125 3.6875 C3.3125 5.3375 3.3125 6.9875 3.3125 8.6875 C3.9725 8.6875 4.6325 8.6875 5.3125 8.6875 C5.6425 7.3675 5.9725 6.0475 6.3125 4.6875 C6.3125 6.3375 6.3125 7.9875 6.3125 9.6875 C1.6925 9.6875 -2.9275 9.6875 -7.6875 9.6875 C-7.6875 2.6875 -7.6875 2.6875 -6.48046875 0.73046875 C-4.08081864 -0.66540615 -2.71616773 -0.43301225 0 0 Z " fill="#CFD4D8" transform="translate(97.6875,146.3125)"/>
<path d="M0 0 C0.33 0 0.66 0 1 0 C0.62134678 5.58513495 0.26612338 8.98482505 -4 13 C-4.99 13 -5.98 13 -7 13 C-7 15.64 -7 18.28 -7 21 C-7.66 21.33 -8.32 21.66 -9 22 C-8.67 20.35 -8.34 18.7 -8 17 C-10.475 16.01 -10.475 16.01 -13 15 C-12.01 14.34 -11.02 13.68 -10 13 C-10.33 12.67 -10.66 12.34 -11 12 C-11.04092937 9.66702567 -11.04241723 7.33294775 -11 5 C-10.34 4.67 -9.68 4.34 -9 4 C-9 5.98 -9 7.96 -9 10 C-8.67 8.35 -8.34 6.7 -8 5 C-7.360625 4.87625 -6.72125 4.7525 -6.0625 4.625 C-5.381875 4.41875 -4.70125 4.2125 -4 4 C-3.67 3.34 -3.34 2.68 -3 2 C-2.01 2 -1.02 2 0 2 C0 1.34 0 0.68 0 0 Z " fill="#326FA7" transform="translate(118,42)"/>
<path d="M0 0 C1.41791408 0.45445964 2.83428046 0.91374944 4.25 1.375 C5.43335938 1.75785156 5.43335938 1.75785156 6.640625 2.1484375 C8.86627958 2.95173667 10.90931672 3.89711662 13 5 C12.67 6.65 12.34 8.3 12 10 C2.93275664 8.17467932 -5.45613887 5.53780174 -14 2 C-10.98968256 1.06576355 -10.13349732 0.95550089 -7 2 C-4.66700175 2.03954234 -2.33291811 2.04401732 0 2 C0 1.34 0 0.68 0 0 Z " fill="#0D3159" transform="translate(138,104)"/>
<path d="M0 0 C1.6045556 0.14148989 3.20863767 0.28835686 4.8125 0.4375 C5.70582031 0.51871094 6.59914063 0.59992188 7.51953125 0.68359375 C10 1 10 1 13 2 C13.08760181 6.18736668 13.14059435 10.37449531 13.1875 14.5625 C13.21263672 15.74392578 13.23777344 16.92535156 13.26367188 18.14257812 C13.31752782 24.55143598 13.15633335 29.3583648 10 35 C9 33 9 33 9.9375 30.0625 C12.10135685 22.93362914 11.82276651 14.87734663 9.265625 7.8828125 C6.86302897 4.30858013 2.9879643 3.19555324 -1 2 C-0.67 1.34 -0.34 0.68 0 0 Z " fill="#92BDD9" transform="translate(107,137)"/>
<path d="M0 0 C0.99 0.33 1.98 0.66 3 1 C3.02505615 1.62455078 3.0501123 2.24910156 3.07592773 2.89257812 C3.19300381 5.76187123 3.31521751 8.63092425 3.4375 11.5 C3.47681641 12.48226562 3.51613281 13.46453125 3.55664062 14.4765625 C3.79760617 20.0373059 4.21921169 25.48855309 5 31 C2 30 2 30 0.82470703 27.80981445 C-0.07674079 24.73854064 -0.22810236 22.23997969 -0.1953125 19.04296875 C-0.18886719 17.93115234 -0.18242188 16.81933594 -0.17578125 15.67382812 C-0.15902344 14.52333984 -0.14226562 13.37285156 -0.125 12.1875 C-0.11597656 11.01767578 -0.10695313 9.84785156 -0.09765625 8.64257812 C-0.07413732 5.76150947 -0.04126852 2.88086011 0 0 Z " fill="#2B70AD" transform="translate(75,140)"/>
<path d="M0 0 C2 2 2 2 2.1328125 4.57421875 C2.13023438 5.60160156 2.12765625 6.62898438 2.125 7.6875 C2.34477615 11.41472409 2.51752595 13.38435902 4.83984375 16.34765625 C6.82546073 18.04712104 8.80663505 19.58105776 11 21 C10.34 21.33 9.68 21.66 9 22 C1.83048123 17.56172647 -5.42447494 12.9110651 -9 5 C-8.01 4.67 -7.02 4.34 -6 4 C-3 7.75 -3 7.75 -3 10 C-2.34 10 -1.68 10 -1 10 C-0.67 6.7 -0.34 3.4 0 0 Z " fill="#2A6AA8" transform="translate(78,98)"/>
<path d="M0 0 C1.32 0.33 2.64 0.66 4 1 C5.04669086 4.80926839 5.20239733 6.54667409 3.56640625 10.2109375 C2.90511719 11.25507813 2.24382812 12.29921875 1.5625 13.375 C0.90378906 14.43460938 0.24507813 15.49421875 -0.43359375 16.5859375 C-0.95050781 17.38257813 -1.46742187 18.17921875 -2 19 C-3.13643966 15.59068103 -2.86747764 14.99664544 -1.5625 11.8125 C-1.27503906 11.09707031 -0.98757812 10.38164062 -0.69140625 9.64453125 C-0.34916016 8.83048828 -0.34916016 8.83048828 0 8 C-0.66 8 -1.32 8 -2 8 C-2.66 9.32 -3.32 10.64 -4 12 C-4.99 12 -5.98 12 -7 12 C-4.69 8.04 -2.38 4.08 0 0 Z " fill="#BEC8D2" transform="translate(115,184)"/>
<path d="M0 0 C2.15841089 4.16285785 3.66753889 8.4474427 5.1875 12.875 C5.47302734 13.66519531 5.75855469 14.45539063 6.05273438 15.26953125 C7.62070608 19.85518086 8.51486255 23.20538648 7 28 C4.9375 29.875 4.9375 29.875 3 31 C0.875 26.375 0.875 26.375 2 23 C2.66 23.66 3.32 24.32 4 25 C3.71125 23.865625 3.4225 22.73125 3.125 21.5625 C2.74951514 20.0417863 2.37454246 18.52094608 2 17 C1.80921875 16.25621094 1.6184375 15.51242188 1.421875 14.74609375 C0.19252201 9.69696542 -0.18894522 5.19599358 0 0 Z " fill="#012553" transform="translate(56,147)"/>
<path d="M0 0 C4.1634322 6.2451483 3.79563946 14.43518718 2.5390625 21.64453125 C1.89522016 23.98887482 1.26538361 25.92347306 0 28 C-3.1875 29.5625 -3.1875 29.5625 -6 30 C-5.58427734 29.22076172 -5.58427734 29.22076172 -5.16015625 28.42578125 C-4.79792969 27.72839844 -4.43570313 27.03101563 -4.0625 26.3125 C-3.70285156 25.62800781 -3.34320313 24.94351563 -2.97265625 24.23828125 C-0.74404884 19.10979914 -0.71909571 13.69477344 -0.4375 8.1875 C-0.37272461 7.00510742 -0.37272461 7.00510742 -0.30664062 5.79882812 C-0.20121679 3.86605785 -0.10016906 1.93304974 0 0 Z " fill="#2E70AC" transform="translate(116,144)"/>
<path d="M0 0 C0.66 0.33 1.32 0.66 2 1 C2 1.66 2 2.32 2 3 C2.721875 3.20625 3.44375 3.4125 4.1875 3.625 C7.9255306 5.45248163 9.49246917 7.70438806 12 11 C11.071875 11.12375 11.071875 11.12375 10.125 11.25 C7.81562433 11.81258459 7.81562433 11.81258459 6.75 14.0625 C6.5025 14.701875 6.255 15.34125 6 16 C3 15 3 15 1 12 C0.8046875 9.73828125 0.8046875 9.73828125 0.875 7.3125 C0.89304687 6.50425781 0.91109375 5.69601563 0.9296875 4.86328125 C0.95289062 4.24839844 0.97609375 3.63351563 1 3 C0.34 3 -0.32 3 -1 3 C-0.67 2.01 -0.34 1.02 0 0 Z " fill="#031529" transform="translate(111,26)"/>
<path d="M0 0 C0.33 0 0.66 0 1 0 C1 1.65 1 3.3 1 5 C3.31 5 5.62 5 8 5 C8 5.33 8 5.66 8 6 C6.02 6 4.04 6 2 6 C2.34978143 12.64584719 3.80477672 15.83664827 8 21 C5.5625 20.625 5.5625 20.625 3 20 C2.67 19.34 2.34 18.68 2 18 C1.01 17.67 0.02 17.34 -1 17 C-1 15.68 -1 14.36 -1 13 C-1.598125 12.7525 -2.19625 12.505 -2.8125 12.25 C-5.28647521 10.83629988 -6.43370255 9.34944617 -8 7 C-7.67 6.34 -7.34 5.68 -7 5 C-5.02 6.65 -3.04 8.3 -1 10 C-0.67 6.7 -0.34 3.4 0 0 Z " fill="#2766A3" transform="translate(74,57)"/>
<path d="M0 0 C0.556875 0.7425 1.11375 1.485 1.6875 2.25 C3.93027178 4.91707995 6.22074975 6.91556232 9 9 C8.67 10.98 8.34 12.96 8 15 C7.01 15.33 6.02 15.66 5 16 C0.04955947 11.2092511 0.04955947 11.2092511 -0.09765625 7.6171875 C-0.08605469 6.71226563 -0.07445313 5.80734375 -0.0625 4.875 C-0.05347656 3.96492188 -0.04445313 3.05484375 -0.03515625 2.1171875 C-0.02355469 1.41851562 -0.01195313 0.71984375 0 0 Z " fill="#296DA9" transform="translate(73,39)"/>
<path d="M0 0 C0.33 0 0.66 0 1 0 C1 7.92 1 15.84 1 24 C-3 23 -3 23 -5 22 C-5.33 22.66 -5.66 23.32 -6 24 C-6.66 21.03 -7.32 18.06 -8 15 C-7.01 15 -6.02 15 -5 15 C-4.67 16.32 -4.34 17.64 -4 19 C-3.34 19 -2.68 19 -2 19 C-1.34 12.73 -0.68 6.46 0 0 Z " fill="#195A96" transform="translate(73,139)"/>
<path d="M0 0 C0.99 0 1.98 0 3 0 C3.28875 0.969375 3.5775 1.93875 3.875 2.9375 C4.64214682 6.10664203 4.64214682 6.10664203 7 7 C7.703125 8.9609375 7.703125 8.9609375 8.25 11.375 C8.44078125 12.16648437 8.6315625 12.95796875 8.828125 13.7734375 C9 16 9 16 7 19 C4.25584905 16.73881962 3.10589714 15.52405508 2.390625 11.984375 C2.34421875 10.91703125 2.2978125 9.8496875 2.25 8.75 C2.19328125 7.67234375 2.1365625 6.5946875 2.078125 5.484375 C2.03945312 4.25460938 2.03945312 4.25460938 2 3 C1.34 5.64 0.68 8.28 0 11 C-0.66 11 -1.32 11 -2 11 C-1.34 7.37 -0.68 3.74 0 0 Z " fill="#02244E" transform="translate(77,97)"/>
<path d="M0 0 C3.82352106 1.5577308 6.29205593 3.91595258 9 7 C9 7.99 9 8.98 9 10 C8.278125 9.690625 7.55625 9.38125 6.8125 9.0625 C4.17505085 8.06613032 1.79060057 7.37710819 -1 7 C-1.99 7.495 -1.99 7.495 -3 8 C-3.33 7.01 -3.66 6.02 -4 5 C-2.0625 2.3125 -2.0625 2.3125 0 0 Z " fill="#5490C2" transform="translate(96,128)"/>
<path d="M0 0 C0.66 0.33 1.32 0.66 2 1 C2 1.99 2 2.98 2 4 C2.515625 3.7525 3.03125 3.505 3.5625 3.25 C7.46522651 2.84972036 9.74166065 4.93220772 13 7 C12.67 5.68 12.34 4.36 12 3 C13.98 3.66 15.96 4.32 18 5 C17.01 5.99 16.02 6.98 15 8 C16.32 8.99 17.64 9.98 19 11 C14.17942512 10.2583731 10.61982004 8.3133665 6.40234375 5.9609375 C3.65150569 4.86060228 2.7494061 5.20769803 0 6 C-0.66 5.34 -1.32 4.68 -2 4 C-2.598125 4.350625 -3.19625 4.70125 -3.8125 5.0625 C-6 6 -6 6 -9 5 C-7.54735962 4.1361871 -6.0876837 3.28419546 -4.625 2.4375 C-3.40683594 1.72400391 -3.40683594 1.72400391 -2.1640625 0.99609375 C-1.44992188 0.66738281 -0.73578125 0.33867187 0 0 Z " fill="#A2CFEA" transform="translate(92,131)"/>
<path d="M0 0 C2.1385485 2.1385485 2.42655063 3.13275314 3 6 C3.66 4.68 4.32 3.36 5 2 C4.40140845 8.34507042 4.40140845 8.34507042 2.8125 10.9375 C0.08912093 12.5339636 -1.90953021 12.38630872 -5 12 C-6.875 10.5 -6.875 10.5 -8 9 C-7.21625 8.87625 -6.4325 8.7525 -5.625 8.625 C-2.85942178 8.20882007 -2.85942178 8.20882007 -1 6 C-0.60235737 4.01178687 -0.26224651 2.01055661 0 0 Z " fill="#3A5473" transform="translate(83,46)"/>
<path d="M0 0 C0 0.33 0 0.66 0 1 C-1.03640625 1.13277344 -2.0728125 1.26554687 -3.140625 1.40234375 C-4.51043265 1.58060639 -5.88022344 1.75899862 -7.25 1.9375 C-7.93191406 2.02451172 -8.61382812 2.11152344 -9.31640625 2.20117188 C-12.60036611 2.6315938 -15.81190294 3.08794131 -19 4 C-19.66 3.01 -20.32 2.02 -21 1 C-13.50376949 -2.67162311 -7.87071822 -2.57003044 0 0 Z " fill="#E4F3F8" transform="translate(105,42)"/>
<path d="M0 0 C1.32 0 2.64 0 4 0 C4.66 2.97 5.32 5.94 6 9 C5.34 9 4.68 9 4 9 C4 8.01 4 7.02 4 6 C3.01 6.495 3.01 6.495 2 7 C2.33 7.598125 2.66 8.19625 3 8.8125 C4 11 4 11 4 14 C3.34 14 2.68 14 2 14 C-0.19790854 9.42102388 -1.49432386 6.19040052 -1 1 C-0.67 0.67 -0.34 0.34 0 0 Z " fill="#8C9BA8" transform="translate(58,66)"/>
<path d="M0 0 C0.66 0 1.32 0 2 0 C2.66 0.66 3.32 1.32 4 2 C4.66 1.67 5.32 1.34 6 1 C5.67 6.61 5.34 12.22 5 18 C4.67 18 4.34 18 4 18 C3.67 16.02 3.34 14.04 3 12 C2.01 11.67 1.02 11.34 0 11 C-1.125 3.375 -1.125 3.375 0 0 Z " fill="#243C51" transform="translate(131,48)"/>
<path d="M0 0 C-1.24663331 0.50833591 -2.49749387 1.00631145 -3.75 1.5 C-4.44609375 1.7784375 -5.1421875 2.056875 -5.859375 2.34375 C-8 3 -8 3 -12 3 C-11.97679688 3.61746094 -11.95359375 4.23492187 -11.9296875 4.87109375 C-11.80166892 10.87882303 -12.43159253 16.20249382 -14 22 C-14.66 22 -15.32 22 -16 22 C-16.33 20.68 -16.66 19.36 -17 18 C-16.01 18 -15.02 18 -14 18 C-14.185625 17.38125 -14.37125 16.7625 -14.5625 16.125 C-15 14 -15 14 -14 12 C-13.77377919 10.29636178 -13.59111527 8.58671299 -13.4375 6.875 C-13.31181641 5.50988281 -13.31181641 5.50988281 -13.18359375 4.1171875 C-13.12300781 3.41851562 -13.06242187 2.71984375 -13 2 C-11.5882217 1.46605821 -10.17029756 0.94834896 -8.75 0.4375 C-7.96109375 0.14746094 -7.1721875 -0.14257812 -6.359375 -0.44140625 C-3.80896548 -1.04522837 -2.44677771 -0.8473932 0 0 Z " fill="#236CAE" transform="translate(85,136)"/>
<path d="M0 0 C0 0.66 0 1.32 0 2 C-5.94 4.64 -11.88 7.28 -18 10 C-18 8.68 -18 7.36 -18 6 C-15.89615302 5.18667257 -13.79191143 4.37436583 -11.6875 3.5625 C-10.51574219 3.11003906 -9.34398437 2.65757813 -8.13671875 2.19140625 C-2.36721311 0 -2.36721311 0 0 0 Z " fill="#D9ECF7" transform="translate(66,105)"/>
<path d="M0 0 C-0.474375 0.350625 -0.94875 0.70125 -1.4375 1.0625 C-3.31017571 3.03804309 -3.31017571 3.03804309 -3.4375 6.4375 C-4 10 -4 10 -5.5625 12.4375 C-9.14763316 14.73566228 -11.79077755 14.28061483 -16 14 C-16.33 14.99 -16.66 15.98 -17 17 C-17.33 17 -17.66 17 -18 17 C-18 15.02 -18 13.04 -18 11 C-17.38511719 11.11859375 -16.77023438 11.2371875 -16.13671875 11.359375 C-11.28077402 12.31702374 -11.28077402 12.31702374 -6.9375 10.5625 C-5.60038077 6.90770745 -5.80584577 3.88308464 -6 0 C-3 -1 -3 -1 0 0 Z " fill="#286EAE" transform="translate(93,45)"/>
<path d="M0 0 C1.125 3.75 1.125 3.75 0 6 C-0.99 6 -1.98 6 -3 6 C-3.33 6.99 -3.66 7.98 -4 9 C-6.475 8.01 -6.475 8.01 -9 7 C-8.34 5.35 -7.68 3.7 -7 2 C-5.33388095 1.957279 -3.66617115 1.95936168 -2 2 C-1.67 2.33 -1.34 2.66 -1 3 C-0.67 2.01 -0.34 1.02 0 0 Z " fill="#0B233A" transform="translate(118,38)"/>
<path d="M0 0 C0.33 0 0.66 0 1 0 C2.32 6.27 3.64 12.54 5 19 C4.01 18.34 3.02 17.68 2 17 C2 16.34 2 15.68 2 15 C1.34 15 0.68 15 0 15 C-0.84888195 9.62374766 -1.0024305 5.34629602 0 0 Z " fill="#296EAD" transform="translate(56,155)"/>
<path d="M0 0 C0.66 0.33 1.32 0.66 2 1 C2.59528685 3.83906038 3.06881101 6.14434325 3 9 C1.5625 11 1.5625 11 0 12 C-1.32 11.34 -2.64 10.68 -4 10 C-3.525625 9.0925 -3.05125 8.185 -2.5625 7.25 C-1.35371179 4.73572051 -0.52006114 2.70431791 0 0 Z " fill="#102B48" transform="translate(113,103)"/>
<path d="M0 0 C-0.67170806 3.8063457 -1.72746564 7.35206816 -3 11 C-3.66 10.01 -4.32 9.02 -5 8 C-6.32 8.99 -7.64 9.98 -9 11 C-9.66 10.67 -10.32 10.34 -11 10 C-3.28571429 0 -3.28571429 0 0 0 Z " fill="#DADFE5" transform="translate(115,192)"/>
<path d="M0 0 C2.31 0 4.62 0 7 0 C7.33 1.65 7.66 3.3 8 5 C4.625 5.625 4.625 5.625 1 6 C0.34 5.34 -0.32 4.68 -1 4 C-0.625 1.875 -0.625 1.875 0 0 Z " fill="#32475F" transform="translate(123,81)"/>
<path d="M0 0 C2.0625 0.4375 2.0625 0.4375 4 1 C4 2.65 4 4.3 4 6 C2.68 6 1.36 6 0 6 C0 6.66 0 7.32 0 8 C-1.98 8.99 -1.98 8.99 -4 10 C-3.52449439 8.51965236 -3.04448784 7.04074979 -2.5625 5.5625 C-2.29566406 4.73878906 -2.02882812 3.91507813 -1.75390625 3.06640625 C-1 1 -1 1 0 0 Z " fill="#4686C0" transform="translate(137,168)"/>
<path d="M0 0 C-0.54723683 3.37462715 -1.0549 5.08235 -3 8 C-6.125 8.1875 -6.125 8.1875 -9 8 C-6.55102041 2.36734694 -6.55102041 2.36734694 -3.9375 0.625 C-2 0 -2 0 0 0 Z " fill="#C4CED5" transform="translate(133,73)"/>
<path d="M0 0 C2 2 2 2 2.0625 5.5 C2.041875 6.655 2.02125 7.81 2 9 C2.33 9.66 2.66 10.32 3 11 C1.35 11 -0.3 11 -2 11 C-3.35384615 4.6 -3.35384615 4.6 -1.5625 1.5625 C-1.046875 1.046875 -0.53125 0.53125 0 0 Z " fill="#031F3E" transform="translate(106,45)"/>
<path d="M0 0 C1.32 0.33 2.64 0.66 4 1 C4.625 3.875 4.625 3.875 5 7 C4.34 7.66 3.68 8.32 3 9 C2.34 8.67 1.68 8.34 1 8 C1 7.34 1 6.68 1 6 C0.01 5.67 -0.98 5.34 -2 5 C-1.34 3.35 -0.68 1.7 0 0 Z " fill="#808E9C" transform="translate(115,184)"/>
<path d="M0 0 C1.508013 0.92455559 3.00624917 1.8650747 4.5 2.8125 C5.75296875 3.59560547 5.75296875 3.59560547 7.03125 4.39453125 C7.6809375 4.92433594 8.330625 5.45414063 9 6 C9 6.99 9 7.98 9 9 C4.59885603 8.49701212 2.28804981 6.91227269 -1 4 C-0.67 2.68 -0.34 1.36 0 0 Z " fill="#2F71AC" transform="translate(82,172)"/>
<path d="M0 0 C0.66 0.99 1.32 1.98 2 3 C-4.89715536 7.07877462 -4.89715536 7.07877462 -9.5 6.75 C-10.325 6.5025 -11.15 6.255 -12 6 C-9.4347341 4.28982274 -7.12039035 3.09582189 -4.3125 1.875 C-3.50425781 1.52179688 -2.69601563 1.16859375 -1.86328125 0.8046875 C-1.24839844 0.53914062 -0.63351563 0.27359375 0 0 Z " fill="#2D70AA" transform="translate(90,134)"/>
<path d="M0 0 C1.134375 0.020625 2.26875 0.04125 3.4375 0.0625 C2.43983891 2.55665272 1.75133315 3.84990335 -0.5 5.375 C-2.5625 6.0625 -2.5625 6.0625 -5.5625 5.0625 C-4.43693182 0.07784091 -4.43693182 0.07784091 0 0 Z " fill="#687E92" transform="translate(108.5625,67.9375)"/>
<path d="M0 0 C1.32 0.33 2.64 0.66 4 1 C4.12375 2.11375 4.2475 3.2275 4.375 4.375 C4.6465813 8.03103677 4.6465813 8.03103677 7 10 C6.38125 10.103125 5.7625 10.20625 5.125 10.3125 C2.63473516 10.87525373 2.63473516 10.87525373 1 14 C1 12.02 1 10.04 1 8 C0.67 8 0.34 8 0 8 C0 5.36 0 2.72 0 0 Z " fill="#233952" transform="translate(55,56)"/>
<path d="M0 0 C1 2 1 2 1.4375 4.5 C1.80148552 7.15791333 1.80148552 7.15791333 4 9 C4.046875 10.91015625 4.046875 10.91015625 3.75 13.0625 C3.61851563 14.13177734 3.61851563 14.13177734 3.484375 15.22265625 C3.24460937 16.10244141 3.24460937 16.10244141 3 17 C2.34 17.33 1.68 17.66 1 18 C1.33 16.35 1.66 14.7 2 13 C-0.475 12.01 -0.475 12.01 -3 11 C-2.01 10.34 -1.02 9.68 0 9 C-0.33 8.67 -0.66 8.34 -1 8 C-1.125 4.5 -1.125 4.5 -1 1 C-0.67 0.67 -0.34 0.34 0 0 Z " fill="#4E6A84" transform="translate(108,46)"/>
<path d="M0 0 C1.67542976 0.28604898 3.34385343 0.61781233 5 1 C5 2.65 5 4.3 5 6 C2.69 6 0.38 6 -2 6 C-1.125 1.125 -1.125 1.125 0 0 Z " fill="#B4B4B3" transform="translate(95,149)"/>
<path d="M0 0 C1.44245638 0.39917032 2.87888841 0.82014517 4.3125 1.25 C5.11300781 1.48203125 5.91351563 1.7140625 6.73828125 1.953125 C9.52704237 3.24395052 10.538222 4.30133291 12 7 C12.29296875 9.796875 12.29296875 9.796875 12.1875 12.75 C12.16042969 13.73484375 12.13335937 14.7196875 12.10546875 15.734375 C12.07066406 16.48203125 12.03585938 17.2296875 12 18 C11.67 18 11.34 18 11 18 C10.96003906 17.26394531 10.92007813 16.52789062 10.87890625 15.76953125 C10.35306055 9.77136371 10.35306055 9.77136371 6.86328125 5.15625 C4.6105756 3.93971822 2.39806295 2.89310575 0 2 C0 1.34 0 0.68 0 0 Z " fill="#020C24" transform="translate(113,24)"/>
<path d="M0 0 C0.33 0 0.66 0 1 0 C1.12036664 5.77759884 0.8320582 11.27959989 0 17 C-0.12375 16.071875 -0.12375 16.071875 -0.25 15.125 C-0.78648121 12.84276697 -0.78648121 12.84276697 -2.875 12 C-3.57625 11.67 -4.2775 11.34 -5 11 C-6.75 8.875 -6.75 8.875 -8 7 C-7.67 6.34 -7.34 5.68 -7 5 C-5.02 6.65 -3.04 8.3 -1 10 C-0.67 6.7 -0.34 3.4 0 0 Z " fill="#244A74" transform="translate(74,57)"/>
<path d="M0 0 C0.99 0.33 1.98 0.66 3 1 C3.76534775 3.7552519 4.19022104 5.44518864 3.25 8.1875 C2 10 2 10 -1 12 C-3.125 7.375 -3.125 7.375 -2 4 C-1.01 5.485 -1.01 5.485 0 7 C0 4.69 0 2.38 0 0 Z " fill="#092646" transform="translate(60,166)"/>
<path d="M0 0 C0.66 0.66 1.32 1.32 2 2 C4.10820797 1.6814823 4.10820797 1.6814823 6 1 C6.33 1.99 6.66 2.98 7 4 C6.34 4.66 5.68 5.32 5 6 C4.60235737 7.98821313 4.26224651 9.98944339 4 12 C2.09681116 9.14521674 1.5380901 7.58058692 0.875 4.3125 C0.70742188 3.50425781 0.53984375 2.69601563 0.3671875 1.86328125 C0.24601562 1.24839844 0.12484375 0.63351563 0 0 Z " fill="#6096C8" transform="translate(61,160)"/>
<path d="M0 0 C0 0.66 0 1.32 0 2 C-5.03236992 6.27820004 -10.58048005 8.00438001 -17 9 C-14.41994017 6.00641141 -11.45675187 4.54433112 -7.9375 2.8125 C-6.87402344 2.28269531 -5.81054688 1.75289063 -4.71484375 1.20703125 C-2 0 -2 0 0 0 Z " fill="#4989C3" transform="translate(63,108)"/>
<path d="M0 0 C1.051875 0.61875 2.10375 1.2375 3.1875 1.875 C6.05015677 3.51579108 8.89207246 4.86984453 12 6 C11.01 6.495 11.01 6.495 10 7 C9.01 6.67 8.02 6.34 7 6 C6.67 6.99 6.34 7.98 6 9 C4.02 8.01 2.04 7.02 0 6 C0.66 5.34 1.32 4.68 2 4 C1.34 2.68 0.68 1.36 0 0 Z " fill="#062951" transform="translate(80,115)"/>
<path d="M0 0 C0.556875 0.7425 1.11375 1.485 1.6875 2.25 C3.90826999 5.07544208 3.90826999 5.07544208 6.75 7.1875 C7.4925 7.785625 8.235 8.38375 9 9 C9 9.66 9 10.32 9 11 C5.94082833 10.66009204 4.19598492 10.14301602 1.6875 8.3125 C-0.45553291 5.37575119 -0.32316568 3.55482252 0 0 Z " fill="#E0F1F7" transform="translate(73,39)"/>
<path d="M0 0 C-0.55728913 3.34373475 -1.35173889 6.03312999 -3 9 C-3 7.68 -3 6.36 -3 5 C-4.65 5.66 -6.3 6.32 -8 7 C-6.53112033 2.34854772 -6.53112033 2.34854772 -4 0.6875 C-2 0 -2 0 0 0 Z " fill="#041326" transform="translate(79,29)"/>
<path d="M0 0 C0.99 0 1.98 0 3 0 C3.2475 0.969375 3.495 1.93875 3.75 2.9375 C4.1625 3.948125 4.575 4.95875 5 6 C7.03243548 6.96877057 7.03243548 6.96877057 9 7 C9 7.66 9 8.32 9 9 C6.83125748 8.49396008 5.00032373 8.00016187 3 7 C2.67 7.66 2.34 8.32 2 9 C1.34 6.03 0.68 3.06 0 0 Z " fill="#0A4072" transform="translate(65,154)"/>
<path d="M0 0 C-0.639375 0.721875 -1.27875 1.44375 -1.9375 2.1875 C-3.98673535 4.98191184 -4.61332946 6.61663274 -5 10 C-5.33 10 -5.66 10 -6 10 C-6 7.03 -6 4.06 -6 1 C-8.31 0.67 -10.62 0.34 -13 0 C-13 -0.33 -13 -0.66 -13 -1 C-11.39773045 -1.22245393 -9.79303233 -1.42746669 -8.1875 -1.625 C-7.29417969 -1.74101563 -6.40085937 -1.85703125 -5.48046875 -1.9765625 C-3 -2 -3 -2 0 0 Z " fill="#2A6BA8" transform="translate(108,44)"/>
<path d="M0 0 C0.99 1.485 0.99 1.485 2 3 C2.98095748 4.01868662 3.97702078 5.02351983 5 6 C5.33 5.34 5.66 4.68 6 4 C6.144375 5.11375 6.28875 6.2275 6.4375 7.375 C6.78372035 10.82142047 6.78372035 10.82142047 8 13 C4.55137873 11.85045958 4.15804191 11.17472849 2.3125 8.1875 C1.87550781 7.50042969 1.43851562 6.81335938 0.98828125 6.10546875 C0 4 0 4 0 0 Z " fill="#82B0D2" transform="translate(75,165)"/>
<path d="M0 0 C-0.66 0.66 -1.32 1.32 -2 2 C-2.46290221 4.66242821 -2.46290221 4.66242821 -2.625 7.625 C-2.69976562 8.62789062 -2.77453125 9.63078125 -2.8515625 10.6640625 C-2.90054688 11.43492187 -2.94953125 12.20578125 -3 13 C-4.67110042 10.03821227 -5.32682752 7.62928808 -5.625 4.25 C-5.69976562 3.45078125 -5.77453125 2.6515625 -5.8515625 1.828125 C-5.90054688 1.22484375 -5.94953125 0.6215625 -6 0 C-2.25 -1.125 -2.25 -1.125 0 0 Z " fill="#3477B5" transform="translate(50,117)"/>
<path d="M0 0 C1.0625 1.8125 1.0625 1.8125 2 4 C1.67 4.99 1.34 5.98 1 7 C0.34 7 -0.32 7 -1 7 C-1.66 7.66 -2.32 8.32 -3 9 C-3.66 8.34 -4.32 7.68 -5 7 C-4.34 5.68 -3.68 4.36 -3 3 C-2.34 3 -1.68 3 -1 3 C-0.67 2.01 -0.34 1.02 0 0 Z " fill="#7D8C9C" transform="translate(132,67)"/>
<path d="M0 0 C0.99 0 1.98 0 3 0 C2.34 2.31 1.68 4.62 1 7 C-0.98 6.34 -2.96 5.68 -5 5 C-3.625 3.5 -3.625 3.5 -2 2 C-1.34 2 -0.68 2 0 2 C0 1.34 0 0.68 0 0 Z " fill="#BAD3EA" transform="translate(137,174)"/>
<path d="M0 0 C2 1 2 1 2.703125 2.9609375 C2.88359375 3.75757812 3.0640625 4.55421875 3.25 5.375 C3.53617187 6.56222656 3.53617187 6.56222656 3.828125 7.7734375 C4 10 4 10 2 13 C0.5 11.6875 0.5 11.6875 -1 10 C-1 9.01 -1 8.02 -1 7 C-0.34 7 0.32 7 1 7 C0.67 4.69 0.34 2.38 0 0 Z " fill="#133760" transform="translate(82,103)"/>
<path d="M0 0 C0 3 0 3 -2.5 5.6875 C-3.325 6.450625 -4.15 7.21375 -5 8 C-5.66 7.67 -6.32 7.34 -7 7 C-6.3125 4.625 -6.3125 4.625 -5 2 C-2.375 0.6875 -2.375 0.6875 0 0 Z " fill="#66A0C8" transform="translate(115,172)"/>
<path d="M0 0 C5.19209404 -0.21192221 9.126739 0.4087311 14 2 C14 2.33 14 2.66 14 3 C12.22992286 3.08114106 10.45877902 3.13925505 8.6875 3.1875 C7.70136719 3.22230469 6.71523437 3.25710937 5.69921875 3.29296875 C3 3 3 3 1.14453125 1.48828125 C0.76683594 0.99714844 0.38914062 0.50601563 0 0 Z " fill="#CAE6F3" transform="translate(91,40)"/>
<path d="M0 0 C0.33 0 0.66 0 1 0 C1 2.97 1 5.94 1 9 C-0.65 8.01 -2.3 7.02 -4 6 C-3.67 4.35 -3.34 2.7 -3 1 C-2.01 1.33 -1.02 1.66 0 2 C0 1.34 0 0.68 0 0 Z " fill="#1D3A4E" transform="translate(111,29)"/>
<path d="M0 0 C0.33 0 0.66 0 1 0 C1.05386629 2.12472576 1.09273071 4.24983652 1.125 6.375 C1.14820313 7.55835938 1.17140625 8.74171875 1.1953125 9.9609375 C1 13 1 13 -1 15 C-1.33 12.36 -1.66 9.72 -2 7 C-1.34 7 -0.68 7 0 7 C0 4.69 0 2.38 0 0 Z " fill="#2C74B6" transform="translate(55,149)"/>
<path d="M0 0 C0.33 0 0.66 0 1 0 C1 2.64 1 5.28 1 8 C-2.24271506 7.4409112 -3.93057424 6.5867822 -6 4 C-6 3.34 -6 2.68 -6 2 C-4 3 -2 4 0 5 C0 3.35 0 1.7 0 0 Z " fill="#102031" transform="translate(96,80)"/>
<path d="M0 0 C0.66 0 1.32 0 2 0 C4.1875 2.8125 4.1875 2.8125 6 6 C5.67 6.99 5.34 7.98 5 9 C3.02 6.69 1.04 4.38 -1 2 C-0.67 1.34 -0.34 0.68 0 0 Z " fill="#447CB3" transform="translate(70,102)"/>
<path d="M0 0 C0.33 0 0.66 0 1 0 C1 3.63 1 7.26 1 11 C0.01 11 -0.98 11 -2 11 C-1.85892253 9.54119891 -1.71197585 8.08296449 -1.5625 6.625 C-1.48128906 5.81289062 -1.40007812 5.00078125 -1.31640625 4.1640625 C-1 2 -1 2 0 0 Z " fill="#236DB2" transform="translate(78,101)"/>
<path d="M0 0 C1.98 0.495 1.98 0.495 4 1 C3.67 2.98 3.34 4.96 3 7 C2.01 7.33 1.02 7.66 0 8 C-1.43088528 5.13822943 -0.59991697 3.06624227 0 0 Z " fill="#041329" transform="translate(69,37)"/>
<path d="M0 0 C1.051875 0.495 1.051875 0.495 2.125 1 C5.26003116 2.09044562 7.70563182 2.15322643 11 2 C11.33 2.99 11.66 3.98 12 5 C4.61538462 4.50769231 4.61538462 4.50769231 1.5 1.9375 C1.005 1.298125 0.51 0.65875 0 0 Z " fill="#6BA0C9" transform="translate(83,178)"/>
<path d="M0 0 C4.455 0.99 4.455 0.99 9 2 C8.01 2.495 8.01 2.495 7 3 C7 3.66 7 4.32 7 5 C4.69 4.34 2.38 3.68 0 3 C0 2.01 0 1.02 0 0 Z " fill="#2D6FA9" transform="translate(107,137)"/>
<path d="M0 0 C0.99 0.33 1.98 0.66 3 1 C-0.11016455 4.28788824 -3.01618925 6.83735988 -7 9 C-5.44499019 5.18315774 -2.96404505 2.80804268 0 0 Z " fill="#05152A" transform="translate(61,18)"/>
<path d="M0 0 C1.32 0.66 2.64 1.32 4 2 C1.6875 4.5 1.6875 4.5 -1 7 C-1.99 7 -2.98 7 -4 7 C-2.68 4.69 -1.36 2.38 0 0 Z " fill="#A7B1BE" transform="translate(112,189)"/>
<path d="M0 0 C1.23104155 3.68400584 0.90767252 6.91474976 0.5625 10.75 C0.46066406 11.92046875 0.35882813 13.0909375 0.25390625 14.296875 C0.17011719 15.18890625 0.08632812 16.0809375 0 17 C-0.33 17 -0.66 17 -1 17 C-1.22126178 14.54220024 -1.42750395 12.08472352 -1.625 9.625 C-1.68945312 8.92632812 -1.75390625 8.22765625 -1.8203125 7.5078125 C-1.96119739 5.67630889 -1.98761659 3.83687252 -2 2 C-1.34 1.34 -0.68 0.68 0 0 Z " fill="#1B2940" transform="translate(136,49)"/>
<path d="M0 0 C1.65 0 3.3 0 5 0 C5 1.32 5 2.64 5 4 C3.35 4 1.7 4 0 4 C0 2.68 0 1.36 0 0 Z " fill="#64778B" transform="translate(124,81)"/>
<path d="M0 0 C0.33 1.32 0.66 2.64 1 4 C1.66 4 2.32 4 3 4 C3.33 5.32 3.66 6.64 4 8 C3.34 8 2.68 8 2 8 C2 7.01 2 6.02 2 5 C0.68 5 -0.64 5 -2 5 C-2 3.68 -2 2.36 -2 1 C-1.34 0.67 -0.68 0.34 0 0 Z " fill="#ACB7C2" transform="translate(60,67)"/>
<path d="M0 0 C2.31 0 4.62 0 7 0 C7.33 0.66 7.66 1.32 8 2 C6.35 2 4.7 2 3 2 C2.34 3.98 1.68 5.96 1 8 C0.67 8 0.34 8 0 8 C0 5.36 0 2.72 0 0 Z " fill="#00234D" transform="translate(76,63)"/>
<path d="M0 0 C0.99 0.66 1.98 1.32 3 2 C3.66 2.33 4.32 2.66 5 3 C2.75 4.1875 2.75 4.1875 0 5 C-2.3125 3.625 -2.3125 3.625 -4 2 C-2.68 1.34 -1.36 0.68 0 0 Z " fill="#5490C4" transform="translate(100,180)"/>
<path d="M0 0 C0.66 0.99 1.32 1.98 2 3 C0.02 3.99 -1.96 4.98 -4 6 C-4 4.68 -4 3.36 -4 2 C-2.68 1.34 -1.36 0.68 0 0 Z " fill="#3177B1" transform="translate(90,134)"/>
<path d="M0 0 C0.66 0 1.32 0 2 0 C2 1.32 2 2.64 2 4 C3.32 4.33 4.64 4.66 6 5 C5 6 5 6 2.4375 6.0625 C1.2309375 6.0315625 1.2309375 6.0315625 0 6 C0 4.02 0 2.04 0 0 Z " fill="#051228" transform="translate(83,26)"/>
<path d="M0 0 C0.33 0 0.66 0 1 0 C1.125 6.75 1.125 6.75 0 9 C-0.66 9 -1.32 9 -2 9 C-1.125 1.125 -1.125 1.125 0 0 Z " fill="#B3BDC5" transform="translate(131,61)"/>
<path d="M0 0 C0.99 0 1.98 0 3 0 C3 0.66 3 1.32 3 2 C3.99 2.33 4.98 2.66 6 3 C5.01 4.485 5.01 4.485 4 6 C2.33333333 4.33333333 0.66666667 2.66666667 -1 1 C-0.67 0.67 -0.34 0.34 0 0 Z " fill="#374C63" transform="translate(116,182)"/>
<path d="M0 0 C2.2109885 0.42793326 3.98119242 0.99059621 6 2 C5.67 2.99 5.34 3.98 5 5 C4.01 4.67 3.02 4.34 2 4 C2 3.34 2 2.68 2 2 C1.01 1.67 0.02 1.34 -1 1 C-0.67 0.67 -0.34 0.34 0 0 Z " fill="#132B46" transform="translate(117,180)"/>
<path d="M0 0 C1.64826111 2.96687001 2.44271087 5.65626525 3 9 C2.01 8.34 1.02 7.68 0 7 C0 6.34 0 5.68 0 5 C-0.66 5 -1.32 5 -2 5 C-2 4.34 -2 3.68 -2 3 C-1.34 3 -0.68 3 0 3 C0 2.01 0 1.02 0 0 Z " fill="#286197" transform="translate(58,165)"/>
<path d="M0 0 C1.61949011 2.57213134 2.04408751 3.67669159 1.625 6.75 C1.41875 7.4925 1.2125 8.235 1 9 C0.34 9 -0.32 9 -1 9 C-1.125 2.25 -1.125 2.25 0 0 Z " fill="#041020" transform="translate(179,121)"/>
<path d="M0 0 C0.66 0.33 1.32 0.66 2 1 C2.625 3.5625 2.625 3.5625 3 6 C1.68 6.33 0.36 6.66 -1 7 C-0.67 4.69 -0.34 2.38 0 0 Z " fill="#1D3855" transform="translate(113,103)"/>
<path d="M0 0 C0 0.99 0 1.98 0 3 C-1.98 3.99 -3.96 4.98 -6 6 C-6 4.68 -6 3.36 -6 2 C-4.02 1.34 -2.04 0.68 0 0 Z " fill="#ACCAD8" transform="translate(116,45)"/>
<path d="M0 0 C0.66 0.33 1.32 0.66 2 1 C2 1.66 2 2.32 2 3 C2.66 3.33 3.32 3.66 4 4 C3.34 4 2.68 4 2 4 C2.33 5.98 2.66 7.96 3 10 C1 7 1 7 1 3 C0.34 3 -0.32 3 -1 3 C-0.67 2.01 -0.34 1.02 0 0 Z " fill="#0F1D30" transform="translate(111,26)"/>
<path d="M0 0 C0.99 0.495 0.99 0.495 2 1 C1.01 1.495 1.01 1.495 0 2 C0 1.34 0 0.68 0 0 Z " fill="#000000" transform="translate(54,226)"/>
<path d="M0 0 C2 1 2 1 2 1 Z " fill="#000000" transform="translate(58,236)"/>
<path d="" fill="#0000FF" transform="translate(0,0)"/>
<path d="" fill="#0000FF" transform="translate(0,0)"/>
<path d="M0 0 C2 1 2 1 2 1 Z " fill="#000000" transform="translate(39,67)"/>
<path d="" fill="#000000" transform="translate(0,0)"/>
<path d="" fill="#000000" transform="translate(0,0)"/>
<path d="" fill="#000000" transform="translate(0,0)"/>
<path d="" fill="#000000" transform="translate(0,0)"/>
<path d="" fill="#000000" transform="translate(0,0)"/>
<path d="" fill="#000000" transform="translate(0,0)"/>
<path d="" fill="#000000" transform="translate(0,0)"/>
<path d="" fill="#000000" transform="translate(0,0)"/>
<path d="" fill="#000000" transform="translate(0,0)"/>
<path d="" fill="#000000" transform="translate(0,0)"/>
<path d="" fill="#000000" transform="translate(0,0)"/>
<path d="" fill="#000000" transform="translate(0,0)"/>
<path d="" fill="#000000" transform="translate(0,0)"/>
<path d="" fill="#0000FF" transform="translate(0,0)"/>
<path d="" fill="#000000" transform="translate(0,0)"/>
<path d="" fill="#000000" transform="translate(0,0)"/>
<path d="" fill="#000000" transform="translate(0,0)"/>
<path d="" fill="#0000FF" transform="translate(0,0)"/>
<path d="" fill="#000000" transform="translate(0,0)"/>
<path d="" fill="#000000" transform="translate(0,0)"/>
<path d="" fill="#000000" transform="translate(0,0)"/>
<path d="" fill="#000000" transform="translate(0,0)"/>
<path d="" fill="#000000" transform="translate(0,0)"/>
<path d="" fill="#0000FF" transform="translate(0,0)"/>
<path d="" fill="#000000" transform="translate(0,0)"/>
<path d="" fill="#000000" transform="translate(0,0)"/>
<path d="" fill="#000000" transform="translate(0,0)"/>
<path d="" fill="#0000FF" transform="translate(0,0)"/>
<path d="" fill="#000000" transform="translate(0,0)"/>
<path d="" fill="#000000" transform="translate(0,0)"/>
<path d="" fill="#0000FF" transform="translate(0,0)"/>
<path d="" fill="#000000" transform="translate(0,0)"/>
<path d="" fill="#000000" transform="translate(0,0)"/>
<path d="" fill="#0000FF" transform="translate(0,0)"/>
<path d="" fill="#0000FF" transform="translate(0,0)"/>
<path d="" fill="#000000" transform="translate(0,0)"/>
<path d="" fill="#000000" transform="translate(0,0)"/>
<path d="" fill="#0000FF" transform="translate(0,0)"/>
<path d="" fill="#000000" transform="translate(0,0)"/>
<path d="" fill="#000000" transform="translate(0,0)"/>
<path d="" fill="#000000" transform="translate(0,0)"/>
<path d="" fill="#000000" transform="translate(0,0)"/>
<path d="" fill="#000000" transform="translate(0,0)"/>
<path d="" fill="#0000FF" transform="translate(0,0)"/>
<path d="" fill="#000000" transform="translate(0,0)"/>
<path d="" fill="#000000" transform="translate(0,0)"/>
<path d="" fill="#000000" transform="translate(0,0)"/>
<path d="" fill="#000000" transform="translate(0,0)"/>
<path d="" fill="#000000" transform="translate(0,0)"/>
<path d="" fill="#000000" transform="translate(0,0)"/>
<path d="" fill="#000000" transform="translate(0,0)"/>
<path d="" fill="#000000" transform="translate(0,0)"/>
<path d="" fill="#000000" transform="translate(0,0)"/>
<path d="" fill="#000000" transform="translate(0,0)"/>
<path d="" fill="#000000" transform="translate(0,0)"/>
<path d="" fill="#000000" transform="translate(0,0)"/>
<path d="" fill="#000000" transform="translate(0,0)"/>
<path d="" fill="#000000" transform="translate(0,0)"/>
<path d="" fill="#000000" transform="translate(0,0)"/>
<path d="" fill="#000000" transform="translate(0,0)"/>
<path d="" fill="#000000" transform="translate(0,0)"/>
<path d="" fill="#000000" transform="translate(0,0)"/>
<path d="" fill="#000000" transform="translate(0,0)"/>
<path d="" fill="#000000" transform="translate(0,0)"/>
<path d="" fill="#000000" transform="translate(0,0)"/>
<path d="" fill="#000000" transform="translate(0,0)"/>
<path d="" fill="#000000" transform="translate(0,0)"/>
<path d="" fill="#000000" transform="translate(0,0)"/>
<path d="" fill="#000000" transform="translate(0,0)"/>
<path d="" fill="#000000" transform="translate(0,0)"/>
<path d="" fill="#000000" transform="translate(0,0)"/>
<path d="" fill="#000000" transform="translate(0,0)"/>
<path d="" fill="#000000" transform="translate(0,0)"/>
<path d="" fill="#000000" transform="translate(0,0)"/>
<path d="" fill="#000000" transform="translate(0,0)"/>
<path d="" fill="#000000" transform="translate(0,0)"/>
<path d="" fill="#000000" transform="translate(0,0)"/>
<path d="" fill="#000000" transform="translate(0,0)"/>
<path d="" fill="#000000" transform="translate(0,0)"/>
<path d="" fill="#000000" transform="translate(0,0)"/>
</svg>
